<mxfile host="app.diagrams.net" modified="2022-03-06T19:48:20.419Z" agent="5.0 (Macintosh; Intel Mac OS X 10_15_7) AppleWebKit/537.36 (KHTML, like Gecko) Chrome/98.0.4758.109 Safari/537.36" etag="b5_i_4VApOBUxQ9Ushk1" version="16.6.6" type="github">
  <diagram name="Page-1" id="5348f1db-0dfa-24cf-5d06-2057accb5106">
    <mxGraphModel dx="2154" dy="2936.5" grid="1" gridSize="10" guides="1" tooltips="1" connect="1" arrows="1" fold="1" page="1" pageScale="1.5" pageWidth="826" pageHeight="1169" background="none" math="0" shadow="0">
      <root>
        <mxCell id="0" style=";html=1;" />
        <mxCell id="1" style=";html=1;" parent="0" />
        <mxCell id="55dd390204d0f602-3" value="" style="whiteSpace=wrap;html=1;rounded=0;shadow=0;dashed=0;strokeColor=none;strokeWidth=4;fillColor=#FFFFFF;gradientColor=none;fontFamily=Helvetica;fontSize=100;fontColor=#FFFFFF;align=center;movable=1;resizable=1;rotatable=1;deletable=1;editable=1;connectable=1;" parent="1" vertex="1">
          <mxGeometry x="10" y="-310" width="1220" height="3280" as="geometry" />
        </mxCell>
        <mxCell id="55dd390204d0f602-1" value="&lt;font style=&quot;font-size: 124px&quot; face=&quot;Lobster&quot; data-font-src=&quot;https://fonts.googleapis.com/css?family=Lobster&quot; color=&quot;#6600cc&quot;&gt;Data Protection Poker&lt;/font&gt;" style="whiteSpace=wrap;html=1;rounded=0;shadow=0;dashed=0;strokeColor=none;strokeWidth=4;fillColor=#FFFFFF;gradientColor=none;fontFamily=Helvetica;fontSize=100;fontColor=#FFFFFF;align=center;movable=1;resizable=1;rotatable=1;deletable=1;editable=1;connectable=1;" parent="1" vertex="1">
          <mxGeometry x="10" y="-320" width="1220" height="200" as="geometry" />
        </mxCell>
        <mxCell id="55dd390204d0f602-5" value="" style="endArrow=none;html=1;dashed=1;dashPattern=1 1;labelBackgroundColor=none;strokeColor=#F49731;fontFamily=Helvetica;fontSize=100;fontColor=#FFFFFF;strokeWidth=16;startArrow=none;" parent="1" edge="1">
          <mxGeometry width="50" height="50" relative="1" as="geometry">
            <mxPoint x="80" y="819" as="sourcePoint" />
            <mxPoint x="1160" y="820" as="targetPoint" />
          </mxGeometry>
        </mxCell>
        <mxCell id="w6yaQcpusODNISTfGhFw-10" style="edgeStyle=orthogonalEdgeStyle;rounded=0;orthogonalLoop=1;jettySize=auto;html=1;entryX=0.5;entryY=0;entryDx=0;entryDy=0;fontFamily=Lobster;fontSource=https%3A%2F%2Ffonts.googleapis.com%2Fcss%3Ffamily%3DLobster;fontSize=124;fontColor=#FFFFFF;endArrow=block;endFill=1;strokeColor=#F49731;strokeWidth=4;" parent="1" source="55dd390204d0f602-6" target="w6yaQcpusODNISTfGhFw-8" edge="1">
          <mxGeometry relative="1" as="geometry" />
        </mxCell>
        <mxCell id="55dd390204d0f602-6" value="Opening Discussions" style="whiteSpace=wrap;html=1;rounded=0;shadow=0;dashed=0;strokeColor=none;strokeWidth=4;fillColor=#6600CC;gradientColor=none;fontFamily=Helvetica;fontSize=30;fontColor=#FFFFFF;align=center;fontStyle=1" parent="1" vertex="1">
          <mxGeometry x="500" y="330" width="400" height="60" as="geometry" />
        </mxCell>
        <mxCell id="55dd390204d0f602-8" value="&lt;div&gt;&lt;span style=&quot;font-size: 18px&quot;&gt;Discuss the selected data sources.&amp;nbsp;&lt;/span&gt;&lt;/div&gt;&lt;div&gt;&lt;ul&gt;&lt;li&gt;&lt;span style=&quot;font-size: 18px ; font-style: italic&quot;&gt;What asset does this data describe?&lt;/span&gt;&lt;/li&gt;&lt;li&gt;&lt;span style=&quot;font-size: 18px ; font-style: italic&quot;&gt;Where does it come from?&lt;/span&gt;&lt;/li&gt;&lt;li&gt;&lt;span style=&quot;font-size: 18px ; font-style: italic&quot;&gt;Where will it be read or updated?&lt;/span&gt;&lt;/li&gt;&lt;/ul&gt;&lt;/div&gt;" style="text;spacingTop=-5;fillColor=#ffffff;whiteSpace=wrap;html=1;align=left;fontSize=14;fontFamily=Helvetica;fillColor=none;strokeColor=none;rounded=0;shadow=0;dashed=0;fontColor=#333333;" parent="1" vertex="1">
          <mxGeometry x="500" y="440" width="535" height="120" as="geometry" />
        </mxCell>
        <mxCell id="w6yaQcpusODNISTfGhFw-2" style="edgeStyle=orthogonalEdgeStyle;rounded=0;orthogonalLoop=1;jettySize=auto;html=1;entryX=1;entryY=0.5;entryDx=0;entryDy=0;exitX=1;exitY=0.5;exitDx=0;exitDy=0;strokeColor=#6600CC;endArrow=block;endFill=1;strokeWidth=4;dashed=1;" parent="1" source="3tE7MyT1pkHbfJzvaQT5-1" target="55dd390204d0f602-6" edge="1">
          <mxGeometry relative="1" as="geometry">
            <Array as="points">
              <mxPoint x="1030" y="110" />
              <mxPoint x="1030" y="360" />
            </Array>
          </mxGeometry>
        </mxCell>
        <mxCell id="3tE7MyT1pkHbfJzvaQT5-1" value="Preliminary scoping" style="whiteSpace=wrap;html=1;rounded=0;shadow=0;dashed=0;strokeColor=#d79b00;strokeWidth=4;fillColor=#ffe6cc;fontFamily=Helvetica;fontSize=30;align=center;fontStyle=1;" parent="1" vertex="1">
          <mxGeometry x="265" y="80" width="400" height="60" as="geometry" />
        </mxCell>
        <mxCell id="3tE7MyT1pkHbfJzvaQT5-4" value="&lt;font style=&quot;font-size: 24px&quot;&gt;&amp;lt; 5 min&lt;/font&gt;" style="text;spacingTop=-5;fillColor=#ffffff;whiteSpace=wrap;html=1;align=center;fontSize=24;fontFamily=Helvetica;fillColor=none;strokeColor=none;rounded=0;shadow=0;dashed=0;fontColor=#333333;verticalAlign=top;fontStyle=1" parent="1" vertex="1">
          <mxGeometry x="500" y="405" width="100" height="35" as="geometry" />
        </mxCell>
        <mxCell id="3tE7MyT1pkHbfJzvaQT5-7" value="&lt;div&gt;&lt;span style=&quot;font-size: 18px&quot;&gt;Discuss briefly the security implications for the data sources.&amp;nbsp;&lt;/span&gt;&lt;/div&gt;&lt;div&gt;&lt;ul&gt;&lt;li&gt;&lt;span style=&quot;font-size: 18px&quot;&gt;&lt;i&gt;Who would be interested in this data source?&lt;/i&gt;&lt;/span&gt;&lt;/li&gt;&lt;li&gt;&lt;span style=&quot;font-size: 18px&quot;&gt;&lt;i&gt;What could an attacker/insider do if they got a hold&lt;br&gt;of the data â€”and stole, deleted, or corrupted the data?&lt;br&gt;&lt;/i&gt;&lt;/span&gt;&lt;/li&gt;&lt;li&gt;&lt;span style=&quot;font-size: 18px&quot;&gt;&lt;i&gt;What could the consequences be if the data was tampered with?&lt;/i&gt;&lt;/span&gt;&lt;/li&gt;&lt;/ul&gt;&lt;/div&gt;" style="text;spacingTop=-5;fillColor=#ffffff;whiteSpace=wrap;html=1;align=left;fontSize=14;fontFamily=Helvetica;fillColor=none;strokeColor=none;rounded=0;shadow=0;dashed=0;fontColor=#333333;" parent="1" vertex="1">
          <mxGeometry x="500" y="613" width="535" height="177" as="geometry" />
        </mxCell>
        <mxCell id="3tE7MyT1pkHbfJzvaQT5-8" value="&lt;font style=&quot;font-size: 24px&quot;&gt;&amp;lt; 10 min&lt;/font&gt;" style="text;spacingTop=-5;fillColor=#ffffff;whiteSpace=wrap;html=1;align=left;fontSize=24;fontFamily=Helvetica;fillColor=none;strokeColor=none;rounded=0;shadow=0;dashed=0;fontColor=#333333;verticalAlign=top;fontStyle=1" parent="1" vertex="1">
          <mxGeometry x="500" y="578" width="170" height="35" as="geometry" />
        </mxCell>
        <mxCell id="w6yaQcpusODNISTfGhFw-7" value="&lt;div&gt;&lt;span style=&quot;font-size: 18px&quot;&gt;Start with determining the scope of the next Protection Poker session.&lt;/span&gt;&lt;/div&gt;&lt;div&gt;&lt;ul&gt;&lt;li&gt;&lt;span style=&quot;font-size: 18px&quot;&gt;&lt;i&gt;Which data sources are introduced this iteration?&lt;/i&gt;&lt;/span&gt;&lt;/li&gt;&lt;li&gt;&lt;span style=&quot;font-size: 18px&quot;&gt;&lt;i&gt;Which data source attributes should be in focus?&lt;/i&gt;&lt;/span&gt;&lt;/li&gt;&lt;/ul&gt;&lt;div&gt;&lt;br&gt;&lt;/div&gt;&lt;/div&gt;" style="text;spacingTop=-5;fillColor=#ffffff;whiteSpace=wrap;html=1;align=left;fontSize=14;fontFamily=Helvetica;fillColor=none;strokeColor=none;rounded=0;shadow=0;dashed=0;fontColor=#333333;fontStyle=0" parent="1" vertex="1">
          <mxGeometry x="265" y="156" width="575" height="112" as="geometry" />
        </mxCell>
        <mxCell id="w6yaQcpusODNISTfGhFw-11" style="edgeStyle=orthogonalEdgeStyle;rounded=0;orthogonalLoop=1;jettySize=auto;html=1;entryX=0.5;entryY=0;entryDx=0;entryDy=0;fontFamily=Lobster;fontSource=https%3A%2F%2Ffonts.googleapis.com%2Fcss%3Ffamily%3DLobster;fontSize=124;fontColor=#FFFFFF;endArrow=block;endFill=1;strokeColor=#F49731;strokeWidth=4;" parent="1" source="w6yaQcpusODNISTfGhFw-8" target="w6yaQcpusODNISTfGhFw-9" edge="1">
          <mxGeometry relative="1" as="geometry" />
        </mxCell>
        <mxCell id="w6yaQcpusODNISTfGhFw-8" value="" style="ellipse;whiteSpace=wrap;html=1;aspect=fixed;fontFamily=Lobster;fontSource=https%3A%2F%2Ffonts.googleapis.com%2Fcss%3Ffamily%3DLobster;fontSize=124;fontColor=#FFFFFF;strokeColor=none;fillColor=#6600CC;" parent="1" vertex="1">
          <mxGeometry x="450" y="410" width="30" height="30" as="geometry" />
        </mxCell>
        <mxCell id="w6yaQcpusODNISTfGhFw-31" style="edgeStyle=orthogonalEdgeStyle;rounded=0;orthogonalLoop=1;jettySize=auto;html=1;entryX=0.5;entryY=0;entryDx=0;entryDy=0;fontFamily=Lobster;fontSource=https%3A%2F%2Ffonts.googleapis.com%2Fcss%3Ffamily%3DLobster;fontSize=124;fontColor=#333333;endArrow=block;endFill=1;strokeColor=#F49731;strokeWidth=4;" parent="1" source="w6yaQcpusODNISTfGhFw-9" target="w6yaQcpusODNISTfGhFw-29" edge="1">
          <mxGeometry relative="1" as="geometry">
            <Array as="points">
              <mxPoint x="465" y="790" />
              <mxPoint x="713" y="790" />
            </Array>
          </mxGeometry>
        </mxCell>
        <mxCell id="w6yaQcpusODNISTfGhFw-9" value="" style="ellipse;whiteSpace=wrap;html=1;aspect=fixed;fontFamily=Lobster;fontSource=https%3A%2F%2Ffonts.googleapis.com%2Fcss%3Ffamily%3DLobster;fontSize=124;fontColor=#FFFFFF;strokeColor=none;fillColor=#6600CC;" parent="1" vertex="1">
          <mxGeometry x="450" y="578" width="30" height="30" as="geometry" />
        </mxCell>
        <mxCell id="w6yaQcpusODNISTfGhFw-14" value="&lt;div&gt;&lt;span style=&quot;font-size: 18px&quot;&gt;Value of data source:&lt;/span&gt;&lt;/div&gt;&lt;div&gt;&lt;ul&gt;&lt;li&gt;&lt;span style=&quot;font-size: 18px&quot;&gt;&lt;i&gt;What is the most valuable data source?&lt;/i&gt;&lt;/span&gt;&lt;/li&gt;&lt;li&gt;&lt;span style=&quot;font-size: 18px&quot;&gt;&lt;i&gt;What is the least valuable data source?&lt;/i&gt;&lt;/span&gt;&lt;/li&gt;&lt;/ul&gt;&lt;div&gt;&lt;span style=&quot;font-size: 18px&quot;&gt;&lt;i&gt;Assign a value of &quot;100&quot; to the most valuable data source, and &quot;&amp;lt;10&quot; to the least valuable data source.&lt;/i&gt;&lt;/span&gt;&lt;/div&gt;&lt;/div&gt;&lt;div&gt;&lt;span style=&quot;font-size: 18px&quot;&gt;&lt;i&gt;&lt;br&gt;&lt;/i&gt;&lt;/span&gt;&lt;/div&gt;&lt;div&gt;&lt;span style=&quot;font-size: 18px&quot;&gt;&lt;i&gt;E.g., the &quot;User&quot; table is assigned 100 points, and the &quot;Trace&quot; table is assigned &amp;lt;10 points.&lt;/i&gt;&lt;/span&gt;&lt;/div&gt;" style="text;spacingTop=-5;fillColor=#ffffff;whiteSpace=wrap;html=1;align=left;fontSize=14;fontFamily=Helvetica;fillColor=none;strokeColor=none;rounded=0;shadow=0;dashed=0;fontColor=#333333;" parent="1" vertex="1">
          <mxGeometry x="132" y="1201" width="420" height="215" as="geometry" />
        </mxCell>
        <mxCell id="w6yaQcpusODNISTfGhFw-16" value="&lt;div&gt;&lt;span style=&quot;font-size: 18px&quot;&gt;Ease of attack of data source:&lt;/span&gt;&lt;/div&gt;&lt;div&gt;&lt;ul&gt;&lt;li&gt;&lt;span style=&quot;font-size: 18px&quot;&gt;&lt;i&gt;What is the most exposed data source?&lt;/i&gt;&lt;/span&gt;&lt;/li&gt;&lt;li&gt;&lt;span style=&quot;font-size: 18px&quot;&gt;&lt;i&gt;What is the least exposed data source?&lt;/i&gt;&lt;/span&gt;&lt;/li&gt;&lt;/ul&gt;&lt;div&gt;&lt;span style=&quot;font-size: 18px&quot;&gt;&lt;i&gt;Assign a value of &quot;100&quot; to the most exposed data source, and &quot;&amp;lt;10&quot; to the least exposed data source.&lt;/i&gt;&lt;/span&gt;&lt;/div&gt;&lt;/div&gt;&lt;div&gt;&lt;span style=&quot;font-size: 18px&quot;&gt;&lt;i&gt;&lt;br&gt;&lt;/i&gt;&lt;/span&gt;&lt;/div&gt;&lt;div&gt;&lt;span style=&quot;font-size: 18px&quot;&gt;&lt;i&gt;E.g., the &quot;Comment&quot; table is assigned 100 points, and the &quot;Country&quot; table is assigned &amp;lt;10 points.&lt;/i&gt;&lt;/span&gt;&lt;/div&gt;" style="text;spacingTop=-5;fillColor=#ffffff;whiteSpace=wrap;html=1;align=left;fontSize=14;fontFamily=Helvetica;fillColor=none;strokeColor=none;rounded=0;shadow=0;dashed=0;fontColor=#333333;" parent="1" vertex="1">
          <mxGeometry x="670" y="1203" width="430" height="215" as="geometry" />
        </mxCell>
        <mxCell id="w6yaQcpusODNISTfGhFw-18" value="" style="group;movable=1;resizable=1;rotatable=1;deletable=1;editable=1;connectable=1;" parent="1" vertex="1" connectable="0">
          <mxGeometry x="990" y="710" width="200" height="200" as="geometry" />
        </mxCell>
        <mxCell id="w6yaQcpusODNISTfGhFw-19" value="" style="ellipse;whiteSpace=wrap;html=1;rounded=0;shadow=0;dashed=0;strokeColor=#FEF15B;strokeWidth=4;fillColor=none;gradientColor=none;fontFamily=Helvetica;fontSize=100;fontColor=#FFFFFF;align=center;movable=0;resizable=0;rotatable=0;deletable=0;editable=0;connectable=0;" parent="w6yaQcpusODNISTfGhFw-18" vertex="1">
          <mxGeometry width="200" height="200" as="geometry" />
        </mxCell>
        <mxCell id="w6yaQcpusODNISTfGhFw-20" value="" style="ellipse;whiteSpace=wrap;html=1;rounded=0;shadow=0;dashed=0;strokeColor=none;strokeWidth=4;fillColor=#F49731;gradientColor=none;fontFamily=Helvetica;fontSize=100;fontColor=#FFFFFF;align=center;movable=1;resizable=1;rotatable=1;deletable=1;editable=1;connectable=1;" parent="w6yaQcpusODNISTfGhFw-18" vertex="1">
          <mxGeometry x="15" y="15" width="170" height="170" as="geometry" />
        </mxCell>
        <mxCell id="w6yaQcpusODNISTfGhFw-21" value="&lt;font face=&quot;Lobster&quot;&gt;2&lt;/font&gt;" style="text;html=1;strokeColor=none;fillColor=none;align=center;verticalAlign=middle;whiteSpace=wrap;rounded=0;fontFamily=Courier New;fontSize=124;fontColor=#FFFFFF;movable=1;resizable=1;rotatable=1;deletable=1;editable=1;connectable=1;" parent="w6yaQcpusODNISTfGhFw-18" vertex="1">
          <mxGeometry x="70" y="85" width="60" height="30" as="geometry" />
        </mxCell>
        <mxCell id="w6yaQcpusODNISTfGhFw-34" style="edgeStyle=orthogonalEdgeStyle;rounded=0;orthogonalLoop=1;jettySize=auto;html=1;entryX=0;entryY=0.5;entryDx=0;entryDy=0;fontFamily=Lobster;fontSource=https%3A%2F%2Ffonts.googleapis.com%2Fcss%3Ffamily%3DLobster;fontSize=124;fontColor=#333333;endArrow=block;endFill=1;strokeColor=#F49731;strokeWidth=4;" parent="1" source="w6yaQcpusODNISTfGhFw-23" target="w6yaQcpusODNISTfGhFw-25" edge="1">
          <mxGeometry relative="1" as="geometry" />
        </mxCell>
        <mxCell id="w6yaQcpusODNISTfGhFw-23" value="Data Source Value" style="whiteSpace=wrap;html=1;rounded=0;shadow=0;dashed=0;strokeColor=none;strokeWidth=4;fillColor=#F49731;gradientColor=none;fontFamily=Helvetica;fontSize=30;fontColor=#FFFFFF;align=center;fontStyle=1" parent="1" vertex="1">
          <mxGeometry x="120" y="1131.5" width="400" height="60" as="geometry" />
        </mxCell>
        <mxCell id="w6yaQcpusODNISTfGhFw-35" style="edgeStyle=orthogonalEdgeStyle;rounded=0;orthogonalLoop=1;jettySize=auto;html=1;fontFamily=Lobster;fontSource=https%3A%2F%2Ffonts.googleapis.com%2Fcss%3Ffamily%3DLobster;fontSize=124;fontColor=#333333;endArrow=block;endFill=1;strokeColor=#F49731;strokeWidth=4;entryX=1;entryY=0.5;entryDx=0;entryDy=0;" parent="1" source="w6yaQcpusODNISTfGhFw-25" edge="1" target="3_Sey8iNE5y7-YSFSz8z-2">
          <mxGeometry relative="1" as="geometry">
            <mxPoint x="980" y="1640" as="targetPoint" />
            <Array as="points">
              <mxPoint x="1140" y="1162" />
              <mxPoint x="1140" y="1690" />
            </Array>
          </mxGeometry>
        </mxCell>
        <mxCell id="w6yaQcpusODNISTfGhFw-25" value="Data Source Exposure" style="whiteSpace=wrap;html=1;rounded=0;shadow=0;dashed=0;strokeColor=none;strokeWidth=4;fillColor=#F49731;gradientColor=none;fontFamily=Helvetica;fontSize=30;fontColor=#FFFFFF;align=center;fontStyle=1" parent="1" vertex="1">
          <mxGeometry x="670" y="1131.5" width="400" height="60" as="geometry" />
        </mxCell>
        <mxCell id="w6yaQcpusODNISTfGhFw-27" value="10 min" style="text;spacingTop=-5;fillColor=#ffffff;whiteSpace=wrap;html=1;align=left;fontSize=24;fontFamily=Helvetica;fillColor=none;strokeColor=none;rounded=0;shadow=0;dashed=0;fontColor=#333333;verticalAlign=top;fontStyle=1" parent="1" vertex="1">
          <mxGeometry x="580" y="950" width="170" height="35" as="geometry" />
        </mxCell>
        <mxCell id="w6yaQcpusODNISTfGhFw-28" value="&lt;span style=&quot;font-size: 18px&quot;&gt;Identify the most and least valuable and exposed data sources in the system. Identifying these will help estimation efforts later.&lt;/span&gt;" style="text;spacingTop=-5;fillColor=#ffffff;whiteSpace=wrap;html=1;align=left;fontSize=14;fontFamily=Helvetica;fillColor=none;strokeColor=none;rounded=0;shadow=0;dashed=0;fontColor=#333333;" parent="1" vertex="1">
          <mxGeometry x="580.5" y="985.5" width="382.5" height="120" as="geometry" />
        </mxCell>
        <mxCell id="w6yaQcpusODNISTfGhFw-32" style="edgeStyle=orthogonalEdgeStyle;rounded=0;orthogonalLoop=1;jettySize=auto;html=1;entryX=0;entryY=0.5;entryDx=0;entryDy=0;fontFamily=Lobster;fontSource=https%3A%2F%2Ffonts.googleapis.com%2Fcss%3Ffamily%3DLobster;fontSize=124;fontColor=#333333;endArrow=block;endFill=1;strokeColor=#F49731;strokeWidth=4;exitX=0;exitY=0.5;exitDx=0;exitDy=0;" parent="1" source="3_Sey8iNE5y7-YSFSz8z-51" target="w6yaQcpusODNISTfGhFw-23" edge="1">
          <mxGeometry relative="1" as="geometry">
            <Array as="points">
              <mxPoint x="80" y="910" />
              <mxPoint x="80" y="1162" />
            </Array>
          </mxGeometry>
        </mxCell>
        <mxCell id="3_Sey8iNE5y7-YSFSz8z-52" style="edgeStyle=orthogonalEdgeStyle;rounded=0;orthogonalLoop=1;jettySize=auto;html=1;exitX=0;exitY=0.5;exitDx=0;exitDy=0;entryX=1;entryY=0.5;entryDx=0;entryDy=0;fontColor=#CC0066;endArrow=block;endFill=1;strokeColor=#F49731;strokeWidth=4;" edge="1" parent="1" source="w6yaQcpusODNISTfGhFw-29" target="3_Sey8iNE5y7-YSFSz8z-51">
          <mxGeometry relative="1" as="geometry" />
        </mxCell>
        <mxCell id="w6yaQcpusODNISTfGhFw-29" value="Calibration" style="whiteSpace=wrap;html=1;rounded=0;shadow=0;dashed=0;strokeColor=none;strokeWidth=4;fillColor=#6600CC;gradientColor=none;fontFamily=Helvetica;fontSize=30;fontColor=#FFFFFF;align=center;fontStyle=1" parent="1" vertex="1">
          <mxGeometry x="580" y="880" width="266.25" height="60" as="geometry" />
        </mxCell>
        <mxCell id="3_Sey8iNE5y7-YSFSz8z-34" style="edgeStyle=orthogonalEdgeStyle;rounded=0;orthogonalLoop=1;jettySize=auto;html=1;entryX=0;entryY=0.5;entryDx=0;entryDy=0;strokeColor=#F49731;strokeWidth=4;endArrow=block;endFill=1;" edge="1" parent="1" source="3_Sey8iNE5y7-YSFSz8z-2" target="3_Sey8iNE5y7-YSFSz8z-11">
          <mxGeometry relative="1" as="geometry">
            <Array as="points">
              <mxPoint x="140" y="1690" />
              <mxPoint x="140" y="1860" />
            </Array>
          </mxGeometry>
        </mxCell>
        <mxCell id="3_Sey8iNE5y7-YSFSz8z-2" value="Protection Poker GO!" style="whiteSpace=wrap;html=1;rounded=0;shadow=0;dashed=0;strokeColor=none;strokeWidth=4;fillColor=#6600CC;gradientColor=none;fontFamily=Helvetica;fontSize=30;fontColor=#FFFFFF;align=center;fontStyle=1" vertex="1" parent="1">
          <mxGeometry x="386.25" y="1660" width="423.12" height="60" as="geometry" />
        </mxCell>
        <mxCell id="3_Sey8iNE5y7-YSFSz8z-3" value="&lt;span style=&quot;font-size: 18px&quot;&gt;Time to go! Go through list one by one and everyone gives a number.&lt;/span&gt;" style="text;spacingTop=-5;fillColor=#ffffff;whiteSpace=wrap;html=1;align=left;fontSize=14;fontFamily=Helvetica;fillColor=none;strokeColor=none;rounded=0;shadow=0;dashed=0;fontColor=#333333;" vertex="1" parent="1">
          <mxGeometry x="428.75" y="1730" width="382.5" height="120" as="geometry" />
        </mxCell>
        <mxCell id="3_Sey8iNE5y7-YSFSz8z-4" value="" style="endArrow=none;html=1;dashed=1;dashPattern=1 1;labelBackgroundColor=none;strokeColor=#F49731;fontFamily=Helvetica;fontSize=100;fontColor=#FFFFFF;strokeWidth=16;startArrow=none;" edge="1" parent="1">
          <mxGeometry width="50" height="50" relative="1" as="geometry">
            <mxPoint x="80" y="1550.0000000000005" as="sourcePoint" />
            <mxPoint x="1160" y="1550.9999999999995" as="targetPoint" />
          </mxGeometry>
        </mxCell>
        <mxCell id="3_Sey8iNE5y7-YSFSz8z-5" value="" style="group;movable=1;resizable=1;rotatable=1;deletable=1;editable=1;connectable=1;" vertex="1" connectable="0" parent="1">
          <mxGeometry x="40" y="1450" width="200" height="200" as="geometry" />
        </mxCell>
        <mxCell id="3_Sey8iNE5y7-YSFSz8z-6" value="" style="ellipse;whiteSpace=wrap;html=1;rounded=0;shadow=0;dashed=0;strokeColor=#FEF15B;strokeWidth=4;fillColor=none;gradientColor=none;fontFamily=Helvetica;fontSize=100;fontColor=#FFFFFF;align=center;movable=0;resizable=0;rotatable=0;deletable=0;editable=0;connectable=0;" vertex="1" parent="3_Sey8iNE5y7-YSFSz8z-5">
          <mxGeometry width="200" height="200" as="geometry" />
        </mxCell>
        <mxCell id="3_Sey8iNE5y7-YSFSz8z-7" value="" style="ellipse;whiteSpace=wrap;html=1;rounded=0;shadow=0;dashed=0;strokeColor=none;strokeWidth=4;fillColor=#F49731;gradientColor=none;fontFamily=Helvetica;fontSize=100;fontColor=#FFFFFF;align=center;movable=1;resizable=1;rotatable=1;deletable=1;editable=1;connectable=1;" vertex="1" parent="3_Sey8iNE5y7-YSFSz8z-5">
          <mxGeometry x="15" y="15" width="170" height="170" as="geometry" />
        </mxCell>
        <mxCell id="3_Sey8iNE5y7-YSFSz8z-8" value="&lt;font face=&quot;Lobster&quot;&gt;3&lt;/font&gt;" style="text;html=1;strokeColor=none;fillColor=none;align=center;verticalAlign=middle;whiteSpace=wrap;rounded=0;fontFamily=Courier New;fontSize=124;fontColor=#FFFFFF;movable=1;resizable=1;rotatable=1;deletable=1;editable=1;connectable=1;" vertex="1" parent="3_Sey8iNE5y7-YSFSz8z-5">
          <mxGeometry x="70" y="85" width="60" height="30" as="geometry" />
        </mxCell>
        <mxCell id="3_Sey8iNE5y7-YSFSz8z-35" style="edgeStyle=orthogonalEdgeStyle;rounded=0;orthogonalLoop=1;jettySize=auto;html=1;exitX=1;exitY=0.5;exitDx=0;exitDy=0;entryX=0;entryY=0.5;entryDx=0;entryDy=0;endArrow=block;endFill=1;strokeColor=#F49731;strokeWidth=4;" edge="1" parent="1" source="3_Sey8iNE5y7-YSFSz8z-11" target="3_Sey8iNE5y7-YSFSz8z-13">
          <mxGeometry relative="1" as="geometry" />
        </mxCell>
        <mxCell id="3_Sey8iNE5y7-YSFSz8z-11" value="Estimating Values" style="whiteSpace=wrap;html=1;rounded=0;shadow=0;dashed=0;strokeColor=none;strokeWidth=4;fillColor=#F49731;gradientColor=none;fontFamily=Helvetica;fontSize=30;fontColor=#FFFFFF;align=center;fontStyle=1" vertex="1" parent="1">
          <mxGeometry x="210" y="1830" width="300" height="60" as="geometry" />
        </mxCell>
        <mxCell id="3_Sey8iNE5y7-YSFSz8z-12" value="&lt;span style=&quot;font-size: 18px&quot;&gt;Time to go!&lt;/span&gt;" style="text;spacingTop=-5;fillColor=#ffffff;whiteSpace=wrap;html=1;align=left;fontSize=14;fontFamily=Helvetica;fillColor=none;strokeColor=none;rounded=0;shadow=0;dashed=0;fontColor=#333333;" vertex="1" parent="1">
          <mxGeometry x="227.5" y="1910" width="382.5" height="120" as="geometry" />
        </mxCell>
        <mxCell id="3_Sey8iNE5y7-YSFSz8z-44" style="edgeStyle=orthogonalEdgeStyle;rounded=0;orthogonalLoop=1;jettySize=auto;html=1;exitX=1;exitY=0.5;exitDx=0;exitDy=0;entryX=1;entryY=0.5;entryDx=0;entryDy=0;fontColor=#CC0066;endArrow=block;endFill=1;strokeColor=#F49731;strokeWidth=4;" edge="1" parent="1" source="3_Sey8iNE5y7-YSFSz8z-13" target="3_Sey8iNE5y7-YSFSz8z-20">
          <mxGeometry relative="1" as="geometry" />
        </mxCell>
        <mxCell id="3_Sey8iNE5y7-YSFSz8z-13" value="Estimating Exposure" style="whiteSpace=wrap;html=1;rounded=0;shadow=0;dashed=0;strokeColor=none;strokeWidth=4;fillColor=#F49731;gradientColor=none;fontFamily=Helvetica;fontSize=30;fontColor=#FFFFFF;align=center;fontStyle=1" vertex="1" parent="1">
          <mxGeometry x="720" y="1830" width="330" height="60" as="geometry" />
        </mxCell>
        <mxCell id="3_Sey8iNE5y7-YSFSz8z-14" value="&lt;span style=&quot;font-size: 18px&quot;&gt;Time to go!&lt;/span&gt;" style="text;spacingTop=-5;fillColor=#ffffff;whiteSpace=wrap;html=1;align=left;fontSize=14;fontFamily=Helvetica;fillColor=none;strokeColor=none;rounded=0;shadow=0;dashed=0;fontColor=#333333;" vertex="1" parent="1">
          <mxGeometry x="717.5" y="1900" width="382.5" height="120" as="geometry" />
        </mxCell>
        <mxCell id="3_Sey8iNE5y7-YSFSz8z-45" style="edgeStyle=orthogonalEdgeStyle;rounded=0;orthogonalLoop=1;jettySize=auto;html=1;entryX=0;entryY=0.5;entryDx=0;entryDy=0;fontColor=#CC0066;endArrow=block;endFill=1;strokeColor=#F49731;strokeWidth=4;" edge="1" parent="1" source="3_Sey8iNE5y7-YSFSz8z-20" target="3_Sey8iNE5y7-YSFSz8z-22">
          <mxGeometry relative="1" as="geometry">
            <Array as="points">
              <mxPoint x="140" y="2183" />
              <mxPoint x="140" y="2293" />
            </Array>
          </mxGeometry>
        </mxCell>
        <mxCell id="3_Sey8iNE5y7-YSFSz8z-20" value="Analyze Results" style="whiteSpace=wrap;html=1;rounded=0;shadow=0;dashed=0;strokeColor=none;strokeWidth=4;fillColor=#6600CC;gradientColor=none;fontFamily=Helvetica;fontSize=30;fontColor=#FFFFFF;align=center;fontStyle=1" vertex="1" parent="1">
          <mxGeometry x="400" y="2153" width="423.12" height="60" as="geometry" />
        </mxCell>
        <mxCell id="3_Sey8iNE5y7-YSFSz8z-21" value="&lt;span style=&quot;font-size: 18px&quot;&gt;Risk = (the sum of the value of all assets that could be exploited with a successful attack) * (the exposure value). Show in Excel sheet one by one.&lt;/span&gt;" style="text;spacingTop=-5;fillColor=#ffffff;whiteSpace=wrap;html=1;align=left;fontSize=14;fontFamily=Helvetica;fillColor=none;strokeColor=none;rounded=0;shadow=0;dashed=0;fontColor=#333333;" vertex="1" parent="1">
          <mxGeometry x="168.75" y="2343" width="382.5" height="120" as="geometry" />
        </mxCell>
        <mxCell id="3_Sey8iNE5y7-YSFSz8z-46" style="edgeStyle=orthogonalEdgeStyle;rounded=0;orthogonalLoop=1;jettySize=auto;html=1;exitX=1;exitY=0.5;exitDx=0;exitDy=0;entryX=0;entryY=0.5;entryDx=0;entryDy=0;fontColor=#CC0066;endArrow=block;endFill=1;strokeColor=#F49731;strokeWidth=4;" edge="1" parent="1" source="3_Sey8iNE5y7-YSFSz8z-22" target="3_Sey8iNE5y7-YSFSz8z-23">
          <mxGeometry relative="1" as="geometry" />
        </mxCell>
        <mxCell id="3_Sey8iNE5y7-YSFSz8z-22" value="Calculate Risk" style="whiteSpace=wrap;html=1;rounded=0;shadow=0;dashed=0;strokeColor=none;strokeWidth=4;fillColor=#F49731;gradientColor=none;fontFamily=Helvetica;fontSize=30;fontColor=#FFFFFF;align=center;fontStyle=1" vertex="1" parent="1">
          <mxGeometry x="160" y="2263" width="270" height="60" as="geometry" />
        </mxCell>
        <mxCell id="3_Sey8iNE5y7-YSFSz8z-23" value="Evaluate Security Measures" style="whiteSpace=wrap;html=1;rounded=0;shadow=0;dashed=0;strokeColor=none;strokeWidth=4;fillColor=#F49731;gradientColor=none;fontFamily=Helvetica;fontSize=30;fontColor=#FFFFFF;align=center;fontStyle=1" vertex="1" parent="1">
          <mxGeometry x="580" y="2263" width="450" height="60" as="geometry" />
        </mxCell>
        <mxCell id="3_Sey8iNE5y7-YSFSz8z-24" value="&lt;span style=&quot;font-size: 18px&quot;&gt;Any data that should be monitored? Other measures that can decrease the risk? Write down which data should be protected, and how.&lt;/span&gt;" style="text;spacingTop=-5;fillColor=#ffffff;whiteSpace=wrap;html=1;align=left;fontSize=14;fontFamily=Helvetica;fillColor=none;strokeColor=none;rounded=0;shadow=0;dashed=0;fontColor=#333333;" vertex="1" parent="1">
          <mxGeometry x="600" y="2343" width="382.5" height="120" as="geometry" />
        </mxCell>
        <mxCell id="3_Sey8iNE5y7-YSFSz8z-26" value="Evaluate session" style="whiteSpace=wrap;html=1;rounded=0;shadow=0;dashed=0;strokeColor=#d79b00;strokeWidth=4;fillColor=#ffe6cc;fontFamily=Helvetica;fontSize=30;align=center;fontStyle=1" vertex="1" parent="1">
          <mxGeometry x="510" y="2540" width="320" height="60" as="geometry" />
        </mxCell>
        <mxCell id="3_Sey8iNE5y7-YSFSz8z-27" style="edgeStyle=orthogonalEdgeStyle;rounded=0;orthogonalLoop=1;jettySize=auto;html=1;entryX=1;entryY=0.5;entryDx=0;entryDy=0;exitX=1;exitY=0.5;exitDx=0;exitDy=0;strokeColor=#6600CC;endArrow=block;endFill=1;strokeWidth=4;dashed=1;" edge="1" parent="1" source="3_Sey8iNE5y7-YSFSz8z-23" target="3_Sey8iNE5y7-YSFSz8z-26">
          <mxGeometry relative="1" as="geometry">
            <Array as="points">
              <mxPoint x="1060" y="2293" />
              <mxPoint x="1060" y="2570" />
            </Array>
            <mxPoint x="535" y="2440.04" as="sourcePoint" />
            <mxPoint x="770" y="2690.0399999999995" as="targetPoint" />
          </mxGeometry>
        </mxCell>
        <mxCell id="3_Sey8iNE5y7-YSFSz8z-28" value="" style="endArrow=none;html=1;dashed=1;dashPattern=1 1;labelBackgroundColor=none;strokeColor=#F49731;fontFamily=Helvetica;fontSize=100;fontColor=#FFFFFF;strokeWidth=16;startArrow=none;" edge="1" parent="1">
          <mxGeometry width="50" height="50" relative="1" as="geometry">
            <mxPoint x="80" y="2040" as="sourcePoint" />
            <mxPoint x="1159.9999999999995" y="2041" as="targetPoint" />
          </mxGeometry>
        </mxCell>
        <mxCell id="3_Sey8iNE5y7-YSFSz8z-29" value="" style="endArrow=none;html=1;dashed=1;dashPattern=1 1;labelBackgroundColor=none;strokeColor=#F49731;fontFamily=Helvetica;fontSize=100;fontColor=#FFFFFF;strokeWidth=16;startArrow=none;" edge="1" parent="1">
          <mxGeometry width="50" height="50" relative="1" as="geometry">
            <mxPoint x="80" y="-20.999999999999545" as="sourcePoint" />
            <mxPoint x="1159.9999999999995" y="-20.000000000000455" as="targetPoint" />
          </mxGeometry>
        </mxCell>
        <mxCell id="w6yaQcpusODNISTfGhFw-4" value="" style="group;movable=1;resizable=1;rotatable=1;deletable=1;editable=1;connectable=1;" parent="1" vertex="1" connectable="0">
          <mxGeometry x="40" y="-120" width="200" height="200" as="geometry" />
        </mxCell>
        <mxCell id="55dd390204d0f602-2" value="" style="ellipse;whiteSpace=wrap;html=1;rounded=0;shadow=0;dashed=0;strokeColor=#FEF15B;strokeWidth=4;fillColor=none;gradientColor=none;fontFamily=Helvetica;fontSize=100;fontColor=#FFFFFF;align=center;movable=0;resizable=0;rotatable=0;deletable=0;editable=0;connectable=0;" parent="w6yaQcpusODNISTfGhFw-4" vertex="1">
          <mxGeometry width="200" height="200" as="geometry" />
        </mxCell>
        <mxCell id="55dd390204d0f602-4" value="" style="ellipse;whiteSpace=wrap;html=1;rounded=0;shadow=0;dashed=0;strokeColor=none;strokeWidth=4;fillColor=#F49731;gradientColor=none;fontFamily=Helvetica;fontSize=100;fontColor=#FFFFFF;align=center;movable=0;resizable=0;rotatable=0;deletable=0;editable=0;connectable=0;" parent="w6yaQcpusODNISTfGhFw-4" vertex="1">
          <mxGeometry x="15" y="15" width="170" height="170" as="geometry" />
        </mxCell>
        <mxCell id="w6yaQcpusODNISTfGhFw-5" value="&lt;font face=&quot;Lobster&quot;&gt;1&lt;/font&gt;" style="text;html=1;strokeColor=none;fillColor=none;align=center;verticalAlign=middle;whiteSpace=wrap;rounded=0;fontFamily=Courier New;fontSize=124;fontColor=#FFFFFF;movable=0;resizable=0;rotatable=0;deletable=0;editable=0;connectable=0;" parent="w6yaQcpusODNISTfGhFw-4" vertex="1">
          <mxGeometry x="70" y="85" width="60" height="30" as="geometry" />
        </mxCell>
        <mxCell id="3_Sey8iNE5y7-YSFSz8z-16" value="" style="group;movable=1;resizable=1;rotatable=1;deletable=1;editable=1;connectable=1;" vertex="1" connectable="0" parent="1">
          <mxGeometry x="1024" y="1945" width="200" height="200" as="geometry" />
        </mxCell>
        <mxCell id="3_Sey8iNE5y7-YSFSz8z-17" value="" style="ellipse;whiteSpace=wrap;html=1;rounded=0;shadow=0;dashed=0;strokeColor=#FEF15B;strokeWidth=4;fillColor=none;gradientColor=none;fontFamily=Helvetica;fontSize=100;fontColor=#FFFFFF;align=center;movable=0;resizable=0;rotatable=0;deletable=0;editable=0;connectable=0;" vertex="1" parent="3_Sey8iNE5y7-YSFSz8z-16">
          <mxGeometry width="200" height="200" as="geometry" />
        </mxCell>
        <mxCell id="3_Sey8iNE5y7-YSFSz8z-18" value="" style="ellipse;whiteSpace=wrap;html=1;rounded=0;shadow=0;dashed=0;strokeColor=none;strokeWidth=4;fillColor=#F49731;gradientColor=none;fontFamily=Helvetica;fontSize=100;fontColor=#FFFFFF;align=center;movable=1;resizable=1;rotatable=1;deletable=1;editable=1;connectable=1;" vertex="1" parent="3_Sey8iNE5y7-YSFSz8z-16">
          <mxGeometry x="15" y="15" width="170" height="170" as="geometry" />
        </mxCell>
        <mxCell id="3_Sey8iNE5y7-YSFSz8z-19" value="&lt;font face=&quot;Lobster&quot;&gt;4&lt;/font&gt;" style="text;html=1;strokeColor=none;fillColor=none;align=center;verticalAlign=middle;whiteSpace=wrap;rounded=0;fontFamily=Courier New;fontSize=124;fontColor=#FFFFFF;movable=1;resizable=1;rotatable=1;deletable=1;editable=1;connectable=1;" vertex="1" parent="3_Sey8iNE5y7-YSFSz8z-16">
          <mxGeometry x="70" y="85" width="60" height="30" as="geometry" />
        </mxCell>
        <mxCell id="3_Sey8iNE5y7-YSFSz8z-47" value="&lt;span style=&quot;font-size: 18px&quot;&gt;How did it go?&lt;/span&gt;" style="text;spacingTop=-5;fillColor=#ffffff;whiteSpace=wrap;html=1;align=left;fontSize=14;fontFamily=Helvetica;fillColor=none;strokeColor=none;rounded=0;shadow=0;dashed=0;fontColor=#333333;" vertex="1" parent="1">
          <mxGeometry x="510" y="2620" width="382.5" height="120" as="geometry" />
        </mxCell>
        <mxCell id="3_Sey8iNE5y7-YSFSz8z-49" value="&lt;div&gt;&lt;div&gt;&lt;span style=&quot;font-size: 18px&quot;&gt;&lt;br&gt;&lt;/span&gt;&lt;/div&gt;&lt;ul&gt;&lt;li&gt;&lt;i&gt;&lt;span style=&quot;font-size: 18px&quot;&gt;&amp;nbsp;What are the risks if the data used by the assets are wrong?&lt;/span&gt;&lt;br&gt;&lt;/i&gt;&lt;/li&gt;&lt;li&gt;&lt;i&gt;&lt;span style=&quot;font-size: 18px&quot;&gt;What are the threats to the data?&lt;br&gt;&lt;/span&gt;&lt;/i&gt;&lt;/li&gt;&lt;li&gt;&lt;i&gt;&lt;span style=&quot;font-size: 18px&quot;&gt;Who are the threat agents?&lt;br&gt;&lt;/span&gt;&lt;/i&gt;&lt;/li&gt;&lt;/ul&gt;&lt;/div&gt;" style="text;spacingTop=-5;fillColor=#ffffff;whiteSpace=wrap;html=1;align=left;fontSize=14;fontFamily=Helvetica;fillColor=none;strokeColor=none;rounded=0;shadow=0;dashed=0;fontColor=#333333;" vertex="1" parent="1">
          <mxGeometry x="1280" y="431" width="535" height="177" as="geometry" />
        </mxCell>
        <mxCell id="3_Sey8iNE5y7-YSFSz8z-51" value="Identify smth" style="whiteSpace=wrap;html=1;rounded=0;shadow=0;dashed=0;strokeColor=none;strokeWidth=4;fillColor=#F49731;gradientColor=none;fontFamily=Helvetica;fontSize=30;fontColor=#FFFFFF;align=center;fontStyle=1" vertex="1" parent="1">
          <mxGeometry x="175.63" y="880" width="266.25" height="60" as="geometry" />
        </mxCell>
      </root>
    </mxGraphModel>
  </diagram>
</mxfile>
